<svg width="7" height="12" viewBox="0 0 7 12" fill="none" xmlns="http://www.w3.org/2000/svg">
<path d="M2.39258 8.07422C2.39258 7.4681 2.46777 6.98503 2.61816 6.625C2.76855 6.26497 3.06478 5.87077 3.50684 5.44238C3.95345 5.00944 4.236 4.70182 4.35449 4.51953C4.53678 4.24154 4.62793 3.94076 4.62793 3.61719C4.62793 3.1888 4.52083 2.86296 4.30664 2.63965C4.09701 2.41178 3.78711 2.29785 3.37695 2.29785C2.98503 2.29785 2.66829 2.40951 2.42676 2.63281C2.18978 2.85156 2.07129 3.15007 2.07129 3.52832H0.410156C0.419271 2.72168 0.692708 2.08366 1.23047 1.61426C1.77279 1.14486 2.48828 0.910156 3.37695 0.910156C4.29297 0.910156 5.00618 1.14258 5.5166 1.60742C6.03158 2.07227 6.28906 2.72168 6.28906 3.55566C6.28906 4.2985 5.94271 5.02995 5.25 5.75L4.40918 6.57715C4.1084 6.91895 3.95345 7.41797 3.94434 8.07422H2.39258ZM2.27637 10.2002C2.27637 9.93132 2.36068 9.71484 2.5293 9.55078C2.69792 9.38216 2.92578 9.29785 3.21289 9.29785C3.50456 9.29785 3.7347 9.38444 3.90332 9.55762C4.07194 9.72624 4.15625 9.94043 4.15625 10.2002C4.15625 10.4508 4.07422 10.6605 3.91016 10.8291C3.74609 10.9977 3.51367 11.082 3.21289 11.082C2.91211 11.082 2.67969 10.9977 2.51562 10.8291C2.35612 10.6605 2.27637 10.4508 2.27637 10.2002Z" fill="#CED9E5"/>
</svg>
